<?xml version="1.0" encoding="UTF-8"?>
<!DOCTYPE svg PUBLIC "-//W3C//DTD SVG 1.1//EN" "http://www.w3.org/Graphics/SVG/1.1/DTD/svg11.dtd">
<!-- Creator: CorelDRAW 2019 (64-Bit) -->
<svg xmlns="http://www.w3.org/2000/svg" xml:space="preserve" width="1080px" height="1080px" version="1.1" style="shape-rendering:geometricPrecision; text-rendering:geometricPrecision; image-rendering:optimizeQuality; fill-rule:evenodd; clip-rule:evenodd"
viewBox="0 0 1080 1080"
 xmlns:xlink="http://www.w3.org/1999/xlink"
 xmlns:xodm="http://www.corel.com/coreldraw/odm/2003">
 <defs>
  <style type="text/css">
   <![CDATA[
    .fil0 {fill:#00B900;fill-rule:nonzero}
    .fil1 {fill:white;fill-rule:nonzero}
   ]]>
  </style>
 </defs>
 <g id="Layer_x0020_1">
  <metadata id="CorelCorpID_0Corel-Layer"/>
  <path class="fil0" d="M846 1080l-612 0c-129.24,0 -234,-104.76 -234,-234l0 -612c0,-129.23 104.76,-234 234,-234l612 0c129.24,0 234,104.77 234,234l0 612c0,129.24 -104.76,234 -234,234z"/>
  <path class="fil1" d="M931.46 492.51c0,-175.95 -176.39,-319.1 -393.22,-319.1 -216.8,0 -393.21,143.15 -393.21,319.1 0,157.74 139.89,289.85 328.85,314.82 12.81,2.77 30.24,8.45 34.65,19.4 3.96,9.93 2.59,25.51 1.27,35.55 0,0 -4.61,27.75 -5.61,33.66 -1.72,9.94 -7.9,38.88 34.05,21.2 41.97,-17.69 226.46,-133.34 308.96,-228.3l-0.02 0c56.98,-62.49 84.28,-125.91 84.28,-196.33z"/>
  <path class="fil0" d="M458.35 407.49l-27.58 0c-4.23,0 -7.66,3.42 -7.66,7.64l0 171.33c0,4.23 3.43,7.65 7.66,7.65l27.58 0c4.23,0 7.66,-3.42 7.66,-7.65l0 -171.33c0,-4.22 -3.43,-7.64 -7.66,-7.64z"/>
  <path class="fil0" d="M648.2 407.49l-27.58 0c-4.23,0 -7.66,3.42 -7.66,7.64l0 101.79 -78.52 -106.03c-0.18,-0.28 -0.38,-0.53 -0.6,-0.78 -0.01,-0.02 -0.03,-0.04 -0.04,-0.05 -0.16,-0.17 -0.31,-0.32 -0.46,-0.47 -0.05,-0.05 -0.1,-0.09 -0.15,-0.13 -0.13,-0.12 -0.26,-0.24 -0.41,-0.34 -0.06,-0.06 -0.13,-0.11 -0.2,-0.16 -0.13,-0.09 -0.26,-0.18 -0.39,-0.27 -0.08,-0.05 -0.15,-0.09 -0.23,-0.14 -0.14,-0.08 -0.28,-0.16 -0.41,-0.23 -0.08,-0.03 -0.16,-0.08 -0.24,-0.11 -0.15,-0.07 -0.29,-0.13 -0.45,-0.19 -0.08,-0.03 -0.16,-0.06 -0.24,-0.09 -0.15,-0.05 -0.3,-0.1 -0.46,-0.15 -0.08,-0.02 -0.17,-0.04 -0.26,-0.06 -0.15,-0.04 -0.3,-0.07 -0.44,-0.1 -0.11,-0.03 -0.22,-0.03 -0.33,-0.05 -0.13,-0.02 -0.26,-0.04 -0.4,-0.05 -0.13,-0.01 -0.26,-0.02 -0.4,-0.02 -0.09,0 -0.17,-0.01 -0.27,-0.01l-27.57 0c-4.23,0 -7.66,3.42 -7.66,7.64l0 171.33c0,4.23 3.43,7.65 7.66,7.65l27.57 0c4.24,0 7.67,-3.42 7.67,-7.65l0 -101.75 78.61 106.17c0.54,0.76 1.21,1.39 1.95,1.89 0.02,0.01 0.05,0.03 0.07,0.06 0.16,0.1 0.32,0.2 0.48,0.28 0.07,0.05 0.14,0.08 0.21,0.12 0.12,0.06 0.25,0.13 0.37,0.18 0.13,0.05 0.24,0.11 0.37,0.16 0.08,0.03 0.15,0.06 0.23,0.08 0.18,0.07 0.35,0.12 0.52,0.17 0.04,0.01 0.08,0.02 0.12,0.03 0.62,0.16 1.27,0.26 1.96,0.26l27.58 0c4.23,0 7.65,-3.42 7.65,-7.65l0 -171.33c0,-4.22 -3.42,-7.64 -7.65,-7.64z"/>
  <path class="fil0" d="M391.87 551.21l-74.95 0 0 -136.07c0,-4.23 -3.42,-7.66 -7.65,-7.66l-27.59 0c-4.22,0 -7.66,3.43 -7.66,7.66l0 171.31 0 0.01c0,2.06 0.82,3.92 2.15,5.29 0.03,0.04 0.06,0.08 0.1,0.12 0.04,0.04 0.07,0.07 0.11,0.11 1.38,1.32 3.24,2.13 5.29,2.13l0.01 0 110.19 0c4.22,0 7.64,-3.43 7.64,-7.66l0 -27.58c0,-4.23 -3.42,-7.66 -7.64,-7.66z"/>
  <path class="fil0" d="M800.51 450.39c4.23,0 7.65,-3.43 7.65,-7.66l0 -27.58c0,-4.23 -3.42,-7.67 -7.65,-7.67l-110.18 0 -0.01 0c-2.07,0 -3.93,0.83 -5.32,2.16 -0.02,0.03 -0.06,0.06 -0.08,0.09 -0.05,0.04 -0.09,0.09 -0.13,0.13 -1.31,1.37 -2.12,3.23 -2.12,5.28l0 0.01 0 171.3 0 0.01c0,2.06 0.82,3.92 2.14,5.29 0.03,0.04 0.07,0.08 0.11,0.12 0.03,0.03 0.07,0.07 0.11,0.1 1.37,1.32 3.23,2.14 5.29,2.14l0.01 0 110.18 0c4.23,0 7.65,-3.43 7.65,-7.66l0 -27.58c0,-4.23 -3.42,-7.66 -7.65,-7.66l-74.94 0 0 -28.96 74.94 0c4.23,0 7.65,-3.43 7.65,-7.66l0 -27.58c0,-4.23 -3.42,-7.67 -7.65,-7.67l-74.94 0 0 -28.95 74.94 0z"/>
 </g>
</svg>
